<?xml version="1.0" encoding="utf-8"?>
<!-- Generator: Adobe Illustrator 21.1.0, SVG Export Plug-In . SVG Version: 6.00 Build 0)  -->
<svg version="1.1" id="Layer_1" xmlns="http://www.w3.org/2000/svg" xmlns:xlink="http://www.w3.org/1999/xlink" x="0px" y="0px"
	 viewBox="0 0 283.5 283.5" style="enable-background:new 0 0 283.5 283.5;" xml:space="preserve">
<style type="text/css">
	.st0{fill:#232221;}
</style>
<polygon class="st0" points="242.3,240.9 242.3,42.5 270.7,42.5 270.7,14.2 242.3,14.2 214,14.2 214,269.3 270.7,269.3 270.7,240.9 
	"/>
<path class="st0" d="M99.4,14.2v255.1h28.3V155.9h28.3v113.4h28.3V14.2H99.4z M127.7,127.6v-85h28.3v85H127.7z"/>
<polygon class="st0" points="71,42.5 71,14.2 14.3,14.2 14.3,269.3 71,269.3 71,240.9 42.7,240.9 42.7,155.9 71,155.9 71,127.6 
	42.7,127.6 42.7,42.5 "/>
</svg>
